<?xml version="1.0" encoding="utf-8"?>
<!-- Svg Vector Icons : http://www.onlinewebfonts.com/icon -->
<!DOCTYPE svg PUBLIC "-//W3C//DTD SVG 1.1//EN" "http://www.w3.org/Graphics/SVG/1.1/DTD/svg11.dtd">
<svg version="1.1" xmlns="http://www.w3.org/2000/svg" xmlns:xlink="http://www.w3.org/1999/xlink" x="0px" y="0px" viewBox="0 0 1000 1000" enable-background="new 0 0 1000 1000" xml:space="preserve">
<metadata> Svg Vector Icons : http://www.onlinewebfonts.com/icon </metadata>
<g><g><g><path d="M807.2,100.9C751.7,40.3,666.5,10,551.7,10H109.5v980h214.4V676.1h227.8c58.7,0,110.7-10.5,156-31.6c45.3-21.1,80.7-49.4,106.2-85.2c25.5-35.7,44.7-73.4,57.4-112.9c12.8-39.6,19.1-80.4,19.1-122.5C890.5,235.9,862.7,161.5,807.2,100.9z M632.1,450.2c-33.2,20.4-79.8,30.6-139.7,30.6H323.9V186.1h168.4c60,0,106.6,10.2,139.7,30.6c33.2,20.4,49.8,59.3,49.8,116.8C681.8,390.9,665.2,429.8,632.1,450.2z"/></g></g><g></g><g></g><g></g><g></g><g></g><g></g><g></g><g></g><g></g><g></g><g></g><g></g><g></g><g></g><g></g></g>
</svg>